# xmcd
#
# Track frame offsets:
#	183
#	14098
#	25460
#	46850
#	61053
#	74085
#	85630
#	95505
#	108453
#	119325
#	129303
#	143818
#	155328
#	167125
#	177860
#	190940
#	202680
#	213265
#	223245
#	233800
#
# Disc length: 3254
#
# Revision: 3
# Processed by: cddbd v1.5.1PL0 Copyright (c) Steve Scherf et al.
# Submitted via: EasyCDDAExtractor 5.0.6
# Normalized: r2:DSETVAR1
#
DISCID=1b0cb414
DTITLE=Various Artist - Big Country Classics Vol. 6
DYEAR=1988
DGENRE=Country
TTITLE0=Johnny Cash - Don't Take Your Guns To Town
TTITLE1=Don Gibson - Oh, Lonesome Me
TTITLE2=Marty Robbins - El Paso
TTITLE3=Lefty Frizzell - Always Late (With Your Kisses)
TTITLE4=Bobby Helms - Fraulein
TTITLE5=Johnny Horton - Battle Of New Orleans
TTITLE6=Eddy Arnold - I Wanna Play House With You
TTITLE7=The Browns - The Three Bells
TTITLE8=Jim Reeves - He'll Have To Go
TTITLE9=Tennessee Ernie Ford - Shotgun Boogie
TTITLE10=Red Foley - Midnight
TTITLE11=Carl Smith - Hey Joe
TTITLE12=The Davis Sisters - I Forgot More Than You'll Ever Know
TTITLE13=Ferlin Husky - Gone
TTITLE14=Hank Snow - I Don't Hurt Anymore
TTITLE15=Faron Young - Country Girl
TTITLE16=The Everly Brothers - Bye Bye Love
TTITLE17=Johnny Cash - Ballad Of A Teenage Queen
TTITLE18=The Everly Brothers - All I Have To Do Is Dream
TTITLE19=Wanda Jackson - It's Only Make Believe
EXTD=Trax Music Ltd. TRXCD 5007\n20 Number One Hits Of The 50's
EXTT0=
EXTT1=
EXTT2=
EXTT3=
EXTT4=
EXTT5=
EXTT6=
EXTT7=
EXTT8=
EXTT9=
EXTT10=
EXTT11=
EXTT12=
EXTT13=
EXTT14=
EXTT15=
EXTT16=
EXTT17=
EXTT18=
EXTT19=
PLAYORDER=
